<?xml version="1.0" encoding="UTF-8"?><svg id="uuid-fac41b92-b50e-49d6-bc8a-d7b7c661fb09" xmlns="http://www.w3.org/2000/svg" width="1158.89111" height="591.13816" viewBox="0 0 1158.89111 591.13816"><rect x="973.22836" y="515.09845" width="21.48737" height="71.07918" fill="#d6d6e3"/><polygon points="850.4434 432.21859 832.02565 444.49709 825.8864 462.91484 1062.24746 545.79469 1071.45634 512.02882 850.4434 432.21859" fill="#d6d6e3"/><polygon points="916.44032 65.3985 832.02565 444.49709 1071.45634 512.02882 1140.52288 19.35414 916.44032 65.3985" fill="#f2f2f2"/><path d="M1128.40604,30.97469l-218.00381,43.02707c-5.2824,1.04258-10.00157-3.46626-9.20076-8.79067l1.016-6.75511c.48268-3.2092,2.90653-5.78177,6.08134-6.45447l220.46859-46.71426c5.88303-1.24653,10.89591,4.36714,8.99423,10.07218l-3.48077,10.4423c-.88518,2.65555-3.1286,4.63095-5.87482,5.17297Z" fill="#d6d6e3"/><rect x="962.77197" y="137.82462" width="2.62546" height="111.82937" transform="translate(769.18509 1157.5901) rotate(-89.93103)" fill="#2977d4"/><rect x="967.81095" y="136.90678" width="95.5165" height="2.62673" transform="translate(-8.85049 105.81795) rotate(-5.93875)" fill="#2977d4"/><path d="M672.3672,256.30679l-33.46414,114.39225c-4.44375,15.1903,6.11948,30.64896,21.88614,32.02906l36.51657,3.19639-24.93857-149.6177Z" fill="#2977d4"/><path d="M672.3672,256.30679l-33.46414,114.39225c-4.44375,15.1903,6.11948,30.64896,21.88614,32.02906l36.51657,3.19639-24.93857-149.6177Z" opacity=".1"/><path d="M935.73734,204.87068v-11.82559s79.76287-5.14411,88.38823-2.36035c0,0,3.53629,5.9913-14.39831,6.94742,0,0-55.80839,8.40114-73.98992,7.23852Z" fill="#090814"/><path d="M976.10347,235.2037l-44.76207,74.02835-21.07588-26.70153,41.19025-64.48896c-1.46338-7.50275.30857-16.21123,5.54504-23.73168,9.16249-13.15884,25.41814-17.6791,36.30824-10.09637,10.89007,7.58277,12.29058,24.39693,3.12806,37.55581-5.2365,7.5205-12.78942,12.20361-20.33365,13.43439Z" fill="#ffb6b6"/><path d="M697.03792,414.6623l-5.37531,18.28168.18231,18.53744s-35.35489,42.52323-22.32993,134.49887l165.65691-2.0772-19.73342-148.00069-118.40055-21.2401Z" fill="#090814"/><path d="M715.68396,161.32438c0-25.94513,21.03273-46.97786,46.97804-46.97786,25.94531,0,46.97804,21.03273,46.97804,46.97786,0,21.04151-13.83483,38.84968-32.90344,44.8305l-7.00395,5.6432,12.5744,44.01039-14.65208,10.3652-46.29736-38.58095s10.00173-12.73938,15.3654-27.10412c-12.67707-8.41306-21.03905-22.80939-21.03905-39.16422Z" fill="#ffb6b6"/><path d="M942.13993,232.85385c-16.58585-.25287-47.24618,52.9735-47.24618,52.9735l-25.18596-8.90706-51.79915-18.33813-39.69864-16.33923.17459,1.19992c-.1564-.37626-.32618-.75636-.51327-1.13998-4.1735-8.59971-16.29677-18.71759-50.71509-16.71228l-16.20655,12.79173-2.20417,1.75244s-10.2262-.88519-20.41611,3.1799c-7.37151,2.96325-14.74303,8.49235-18.23004,18.82624-1.80668,5.33039-1.80668,16.35109-.72271,30.35331,3.92072,50.69706,22.19331,158.47247,22.19331,158.47247l115.35364-15.2704,8.50982.19902s1.01179-11.61713,1.91509-26.83016c.56014-8.92533,1.06603-19.06148,1.35511-28.81752.1987-7.15462.25295-14.0926.12643-20.19922-.01803-.37978-.01803-.75924-.03614-1.1387-.34333-11.14729-1.46344-19.22332-3.86647-20.10852,0,0,7.46189-.19902,18.23004-.59643,26.01707-.97557,71.3662-3.16196,77.83433-6.68478,9.14206-4.96856,57.07482-71.6552,57.07482-71.6552,0,0-9.32274-26.73978-25.9267-27.01091Z" fill="#2977d4"/><path d="M811.02819,164.79198c-3.54866-17.36143-5.25091-26.25456-18.14995-38.53589-3.06156.43331.80816,16.30819-16.06729,38.42177-24.53149,32.14604-22.08604,2.67198-29.34026,12.5744-1.57478,2.14973-1.91469,9.90604-1.39716,12.5744,2.04499,10.54362,14.14688.24845,1.39716,36.32604-1.89687,2.80599-4.13331,2.12381-6.98578,2.09573-.22086-.00217,1.22609-.27845-4.19147-1.39716-2.58576-.53396-6.20503-1.16464-10.54374-1.89557-50.40276-8.49128-68.20014-72.08937-29.24174-105.17688,8.86384-7.52809,17.5627-13.23351,25.11535-15.87722,22.74795-7.96262,74.57734-2.78703,84.5279,23.05306,4.74661,12.32614,6.33203,24.95607,4.87698,37.83731Z" fill="#010102"/><circle cx="707.21871" cy="230.9328" r="35.94807" fill="#010102"/><rect x="199.60319" y="509.98653" width="21.48737" height="77.64282" transform="translate(420.69374 1097.61588) rotate(-180)" fill="#d6d6e3"/><polygon points="343.87552 427.10668 362.29327 439.38518 368.43252 457.80292 132.07145 540.68278 122.86258 506.91691 343.87552 427.10668" fill="#d6d6e3"/><polygon points="277.8786 60.28659 362.29327 439.38518 122.86258 506.91691 53.79604 14.24223 277.8786 60.28659" fill="#f2f2f2"/><path d="M65.91288,25.86278l218.00381,43.02707c5.2824,1.04258,10.00157-3.46626,9.20076-8.79067l-1.016-6.75511c-.48268-3.2092-2.90653-5.78177-6.08134-6.45447L65.55153.17533c-5.88303-1.24653-10.89591,4.36714-8.99423,10.07218l3.48077,10.4423c.88518,2.65555,3.1286,4.63095,5.87482,5.17297Z" fill="#d6d6e3"/><path d="M233.79009,160.56408c-5.98868,0-11.9921-2.5229-17.25904-7.32641-6.36237-5.80087-10.90051-14.2631-12.77923-23.82781-3.90613-19.88706,5.05093-38.44985,19.96654-41.38041,7.30077-1.43323,14.88485,1.02557,21.35554,6.92772,6.36237,5.80087,10.90051,14.2631,12.77923,23.82781,3.90613,19.88706-5.05093,38.44985-19.96654,41.38041-1.35888.26665-2.72737.39869-4.09651.39869ZM227.79884,90.25878c-1.19671,0-2.39022.11409-3.57411.34741-13.49584,2.65109-21.52348,19.83065-17.89617,38.29858,1.77039,9.01475,6.02201,16.96803,11.97159,22.39329,5.84125,5.32655,12.61385,7.56613,19.08006,6.29058,13.49584-2.65109,21.52348-19.83065,17.89617-38.29858h0c-1.77039-9.01475-6.02201-16.96803-11.97159-22.39329-4.77146-4.35097-10.16723-6.63799-15.50596-6.63799Z" fill="#2977d4"/><rect x="243.55519" y="111.97325" width="2.62529" height="28.65958" transform="translate(74.07106 342.50011) rotate(-78.97581)" fill="#2977d4"/><path d="M343.69707,140.28789v-11.82559s-79.76287-5.14411-88.38823-2.36035c0,0-3.53629,5.9913,14.39831,6.94742,0,0,55.80839,8.40114,73.98992,7.23852Z" fill="#090814"/><path d="M328.07981,143.48314l50.68441,76.42862-35.13762,8.10891-43.15854-68.68505c-7.85402-1.99507-15.39856-7.63721-20.23545-16.06204-8.46328-14.7413-5.43434-32.36923,6.76535-39.37336,12.19971-7.00408,28.95015-.73196,37.41345,14.00939,4.83691,8.42488,5.9052,17.78509,3.66839,25.57352Z" fill="#ffb6b6"/><path d="M579.87554,154.86756c0-33.53694-27.18712-60.72406-60.72428-60.72406-33.53716,0-60.72428,27.18712-60.72428,60.72406,0,27.19846,17.88304,50.21749,42.53132,57.94835l9.05337,7.29446-16.25379,56.88827,18.93942,13.39816,59.84443-49.87013s-12.92833-16.46705-19.86147-35.03506c16.38651-10.8748,27.19529-29.48364,27.19529-50.62406Z" fill="#ffb6b6"/><path d="M408.26189,473.91696l71.4329-57.5116,11.31232,34.24088-64.41578,49.30419c-1.26284,8.00445-6.18574,16.03681-14.12902,21.62946-13.89869,9.78567-31.73074,8.39402-39.82925-3.10833-8.09847-11.50238-3.39658-28.75953,10.50215-38.54522,7.94332-5.59268,17.16525-7.51896,25.12667-6.00937Z" fill="#ffb6b6"/><polygon points="592.52095 387.87513 592.59035 388.1617 431.08784 501.70819 408.07777 459.75513 485.63178 380.8827 592.52095 387.87513" fill="#2977d4"/><polygon points="592.52095 387.87513 592.59035 388.1617 431.08784 501.70819 408.07777 459.75513 485.63178 380.8827 592.52095 387.87513" opacity=".1"/><polygon points="597.4165 477.47044 464.46804 508.72668 467.11672 584.8649 613.08095 584.8649 597.4165 477.47044" fill="#090814"/><path d="M558.82819,218.33476s-24.35959,4.42347-50.51144,20.08756c-26.15185,15.66409-46.36085,85.47781-46.36085,85.47781,0,0-21.51068,165.16345,2.17316,184.35681l133.28744-30.7865s17.36042-13.56149,24.57888-60.63471c6.93399-45.21831-20.27138-201.97528-63.16719-198.50097Z" fill="#2977d4"/><path d="M538.83004,254.33999l-96.43262-7.22502-102.13874-82.21807s-42.47333,19.18847-38.39258,29.33772,51.43157,95.25705,51.43157,95.25705c0,0,140.33315,51.84129,157.19225,53.96692s28.34012-89.11862,28.34012-89.11862Z" fill="#2977d4"/><path d="M542.363,199.66755l18.7244,1.72317c.66064,3.76194,25.27073-28.35811,25.90709-48.26515.14934-4.66954,3.98228-59.00851-48.16445-71.65127-52.14673-12.64275-93.41692,26.1361-83.51305,31.59794,9.90387,5.46183,37.07535,9.17572,37.07535,9.17572,0,0-20.32109,33.17,5.05859,44.09773,0,0,1.04247,16.3409,8.69266,17.02312,7.65019.68222,27.8559-10.70156,31.87308,2.89755l4.01718,13.59911" fill="#090814"/><rect x="166.6785" y="259.90566" width="109.2807" height="2.6257" transform="translate(-22.45396 20.81893) rotate(-5.12605)" fill="#2977d4"/><path d="M1155.99986,591.13816H2.8509c-1.69894-.12986-2.95421-1.60696-2.84419-3.3059-.11002-1.68091,1.14525-3.15801,2.84419-3.28787h1153.14896c1.49694.18396,2.67827,1.36709,2.86223,2.86223.23987,1.8288-1.03343,3.48986-2.86223,3.73154Z" fill="#ccc"/></svg>